<svg width="512" height="512" viewBox="0 0 512 512" fill="none" xmlns="http://www.w3.org/2000/svg">
<g clip-path="url(#clip0_2_2)">
<path d="M280.562 559.828C281.812 569.828 292.281 576.625 286.031 578.188C279.781 579.75 252.437 528.578 246.187 506.703C239.937 484.828 236.422 460.219 237.984 446.156C239.547 432.094 320.406 410.219 320.406 404.359C320.406 398.5 294.234 403.969 293.062 399.281C291.891 394.594 312.828 397.406 318.453 389.906C327.242 378.188 338.375 380.141 345.406 373.891C352.437 367.641 361.031 343.813 362.594 333.656C364.156 323.5 346.969 311.781 342.281 303.969C337.594 296.156 352.437 290.688 388.375 275.844C424.312 261 538.375 228.188 539.937 232.094C541.5 236 502.437 252.406 475.094 262.563C447.75 272.719 403.219 292.25 403.219 297.719C403.219 303.187 405.562 307.484 404 319.984C402.437 332.484 402.25 338.321 399.312 346.547C397.359 352.016 395.406 364.906 399.312 376.625C402.437 386 412.594 393.031 417.281 394.594C421.187 394.854 431.969 395.219 443.844 394.594C458.687 393.813 479.781 395.375 479.781 399.281C479.781 403.188 447.75 400.844 447.75 406.313C447.75 411.781 480.562 405.531 479.781 411C479 416.469 452.437 414.125 438.375 414.125C427.125 414.125 410.51 413.604 403.219 411L401.656 416.469C399.052 416.469 393.609 418.031 387.984 418.031C380.953 418.031 380.562 420.375 367.672 420.375C354.781 420.375 358.687 419.594 346.969 418.813C335.25 418.031 291.5 451.625 283.687 462.563C275.875 473.5 280.562 500.063 280.562 512.172C280.562 523.053 279 547.328 280.562 559.828Z" fill="white"/>
<path d="M45.5625 452.828C46.8125 462.828 57.2812 469.625 51.0312 471.188C44.7812 472.75 17.4375 421.578 11.1875 399.703C4.93747 377.828 1.42185 353.219 2.98435 339.156C4.54677 325.094 85.4062 303.219 85.4062 297.359C85.4062 291.5 59.2343 296.969 58.0625 292.281C56.8906 287.594 77.8281 290.406 83.4531 282.906C92.2422 271.188 103.375 273.141 110.406 266.891C117.437 260.641 126.031 236.812 127.594 226.656C129.156 216.5 111.969 204.781 107.281 196.969C102.594 189.156 117.437 183.687 153.375 168.844C189.312 154 303.375 121.187 304.937 125.094C306.5 129 267.437 145.406 240.094 155.562C212.75 165.719 168.219 185.25 168.219 190.719C168.219 196.187 170.562 200.484 169 212.984C167.437 225.484 167.25 231.321 164.312 239.547C162.359 245.016 160.406 257.906 164.312 269.625C167.437 279 177.594 286.031 182.281 287.594C186.187 287.854 196.969 288.219 208.844 287.594C223.687 286.812 244.781 288.375 244.781 292.281C244.781 296.188 212.75 293.844 212.75 299.312C212.75 304.781 245.562 298.531 244.781 304C244 309.469 217.437 307.125 203.375 307.125C192.125 307.125 175.51 306.604 168.219 304L166.656 309.469C164.052 309.469 158.609 311.031 152.984 311.031C145.953 311.031 145.562 313.375 132.672 313.375C119.781 313.375 123.687 312.594 111.969 311.812C100.25 311.031 56.5 344.625 48.6875 355.562C40.875 366.5 45.5625 393.062 45.5625 405.172C45.5625 416.053 44 440.328 45.5625 452.828Z" fill="white"/>
<path d="M311.562 320.828C312.812 330.828 323.281 337.625 317.031 339.188C310.781 340.75 283.437 289.578 277.187 267.703C270.937 245.828 267.422 221.219 268.984 207.156C270.547 193.094 351.406 171.219 351.406 165.359C351.406 159.5 325.234 164.969 324.062 160.281C322.891 155.594 343.828 158.406 349.453 150.906C358.242 139.188 369.375 141.141 376.406 134.891C383.437 128.641 392.031 104.812 393.594 94.6562C395.156 84.5 377.969 72.7812 373.281 64.9687C368.594 57.1562 383.437 51.6875 419.375 36.8437C455.312 22 569.375 -10.8125 570.937 -6.90625C572.5 -3 533.437 13.4062 506.094 23.5625C478.75 33.7187 434.219 53.25 434.219 58.7187C434.219 64.1875 436.562 68.4844 435 80.9844C433.437 93.4844 433.25 99.3211 430.312 107.547C428.359 113.016 426.406 125.906 430.312 137.625C433.437 147 443.594 154.031 448.281 155.594C452.187 155.854 462.969 156.219 474.844 155.594C489.687 154.812 510.781 156.375 510.781 160.281C510.781 164.188 478.75 161.844 478.75 167.312C478.75 172.781 511.562 166.531 510.781 172C510 177.469 483.437 175.125 469.375 175.125C458.125 175.125 441.51 174.604 434.219 172L432.656 177.469C430.052 177.469 424.609 179.031 418.984 179.031C411.953 179.031 411.562 181.375 398.672 181.375C385.781 181.375 389.687 180.594 377.969 179.812C366.25 179.031 322.5 212.625 314.687 223.562C306.875 234.5 311.562 261.062 311.562 273.172C311.562 284.053 310 308.328 311.562 320.828Z" fill="white"/>
</g>
<defs>
<clipPath id="clip0_2_2">
<rect width="512" height="512" fill="white"/>
</clipPath>
</defs>
</svg>
