<svg width="512" height="277" viewBox="0 0 512 277" fill="none" xmlns="http://www.w3.org/2000/svg">
<path fill-rule="evenodd" clip-rule="evenodd" d="M351.453 165.267L402.027 143.76L418.889 165.473C418.889 165.473 406.253 179.683 386.04 184.964C365.827 190.244 354.501 189.967 354.501 189.967L351.453 165.267Z" fill="#E52129"/>
<path fill-rule="evenodd" clip-rule="evenodd" d="M321.38 121.518C324.882 122.531 329.473 125.572 331.891 126.766C348.753 122.36 364.36 116.878 372.668 114.621C367.339 109.906 360.442 108.215 358.858 108.198C357.397 108.089 332.3 113.679 320.571 117.686C314.202 119.862 313.929 119.363 321.38 121.518Z" fill="#E52129"/>
<path fill-rule="evenodd" clip-rule="evenodd" d="M306.169 127.001L346.299 184.218L344.499 159.372C338.763 148.148 324.865 121.467 306.169 127.001Z" fill="#E52129"/>
<path fill-rule="evenodd" clip-rule="evenodd" d="M378.198 225.866C383.685 233.536 398.657 236.423 405.677 232.702C405.726 232.675 389.133 224.867 382.934 218.379C377.374 217.91 378.198 225.866 378.198 225.866Z" fill="#E52129"/>
<path fill-rule="evenodd" clip-rule="evenodd" d="M445.604 197.955C446.616 204.839 446.4 209.827 441.471 213.297C441.431 213.323 442.661 201.7 435.765 190.463L445.604 197.955Z" fill="#E52129"/>
<path fill-rule="evenodd" clip-rule="evenodd" d="M344.583 201.589C344.583 201.589 323.043 173.304 318.428 169.827C327.752 186.35 342.505 205.849 342.505 205.849L344.583 201.589Z" fill="#E52129"/>
<path fill-rule="evenodd" clip-rule="evenodd" d="M355.983 164.849C355.983 164.849 347.005 146.683 333.491 131.653C346.999 150.99 353.168 169.884 353.168 169.884L355.983 164.849Z" fill="#E52129"/>
<path fill-rule="evenodd" clip-rule="evenodd" d="M402.399 153.932C402.399 153.932 399.469 151.291 396.606 146.753C396.112 145.966 400.26 145.514 399.708 144.651C393.115 134.317 382.598 123.353 376.077 116.926C384.531 122.639 393.097 130.838 403.102 143.45C411.347 153.841 417.852 164.458 417.852 164.458L402.399 153.932Z" fill="#E52129"/>
<path d="M355.031 240.153C351.637 241.249 346.344 234.272 343.214 224.567C340.084 214.863 340.299 206.109 343.696 205.013C347.089 203.918 352.383 210.895 355.513 220.6C358.646 230.303 358.428 239.059 355.031 240.153ZM302.042 164.988C298.806 165.498 295.001 158.413 293.543 149.163C292.089 139.916 293.534 132.004 296.767 131.496C300.006 130.985 303.809 138.07 305.266 147.318C306.721 156.568 305.278 164.477 302.042 164.988ZM439.338 194.568C441.24 197.376 443.086 200.166 444.74 202.833C448.046 210.085 446.707 218.621 441.416 225.131C434.741 233.339 423.627 237.756 419.149 239.247C406.85 243.854 391.594 243.597 382.789 239.298C390.682 247.987 406.035 247.993 419.449 246.777C407.859 250.736 393.869 251.395 383.461 246.247C375.911 242.515 367.624 236.031 362.709 229.691C361.921 226.181 359.561 216.575 358.258 213.75C351.58 199.232 339.611 194.465 337.648 207.852L308.024 163.055C311.614 159.112 310.402 141.565 305.999 133.848C301.597 126.13 295.81 126.447 295.81 126.447C295.81 126.447 295.755 124.066 299.285 120.566C302.812 117.066 345.78 105.107 351.795 106.82C352.816 107.18 353.813 107.564 354.825 107.934C347.662 90.3243 344.671 70.4126 341.981 42.2809C340.463 26.4195 337.836 11.7598 330.949 6.63118C316.038 -4.47922 299.77 -0.095113 284.929 8.5628C264.043 20.7337 217.421 71.1616 202.301 88.659C211.303 65.8416 216.954 35.7546 187.363 30.457H187.351C155.827 24.8039 126.59 57.6097 107.738 78.5379C76.6074 113.105 45.8408 152.871 0 175.49C25.5065 175.585 53.4734 175.069 102.375 130.908C133.284 103.001 162.438 68.3413 169.283 76.2157C174.052 81.2897 150.282 110.794 144.376 122.22L142.58 125.726C139.719 131.347 137.959 136.313 137.135 140.61C135.556 148.88 136.168 159.123 145.755 161.053C150.455 162 156.212 161.413 162.493 159.275L162.762 159.174C168.462 157.197 174.661 153.931 180.945 149.37C197.204 137.559 223.456 116.641 239.379 102.681C244.412 98.2683 249.29 93.9884 254.226 89.7477C264.343 81.0531 277.121 66.4476 282.508 65.335C287.529 64.1763 288.035 70.5026 286.992 76.4572C270.503 170.733 306.26 229.007 369.636 272.206C370.051 270.043 423.915 300.083 512 222.271C485.315 215.639 460.938 206.365 439.338 194.568Z" fill="#E52129"/>
<path fill-rule="evenodd" clip-rule="evenodd" d="M344.832 209.794C348.068 209.286 351.871 216.37 353.325 225.617C353.567 227.137 353.725 228.621 353.813 230.039C352.216 221.466 347.901 215.906 345.014 216.359C342.123 216.814 341.396 221.605 341.841 228.838C341.757 228.386 341.681 227.929 341.605 227.462C340.151 218.215 341.596 210.305 344.832 209.794Z" fill="#E52129"/>
<path fill-rule="evenodd" clip-rule="evenodd" d="M293.295 129.367C297.779 128.662 301.524 142.162 301.13 150.578C298.446 140.982 295.219 136.445 292.331 136.899C289.441 137.353 288.713 142.144 289.159 149.377C289.074 148.924 289.686 152.857 288.922 148.002C288.159 143.148 290.059 129.875 293.295 129.367Z" fill="#E52129"/>
</svg>
